<svg xmlns="http://www.w3.org/2000/svg">

<symbol id="setup" viewBox="0 0 50 50">
    <path d="M47.16,21.221l-5.91-0.966c-0.346-1.186-0.819-2.326-1.411-3.405l3.45-4.917c0.279-0.397,0.231-0.938-0.112-1.282 l-3.889-3.887c-0.347-0.346-0.893-0.391-1.291-0.104l-4.843,3.481c-1.089-0.602-2.239-1.08-3.432-1.427l-1.031-5.886 C28.607,2.35,28.192,2,27.706,2h-5.5c-0.49,0-0.908,0.355-0.987,0.839l-0.956,5.854c-1.2,0.345-2.352,0.818-3.437,1.412l-4.83-3.45 c-0.399-0.285-0.942-0.239-1.289,0.106L6.82,10.648c-0.343,0.343-0.391,0.883-0.112,1.28l3.399,4.863 c-0.605,1.095-1.087,2.254-1.438,3.46l-5.831,0.971c-0.482,0.08-0.836,0.498-0.836,0.986v5.5c0,0.485,0.348,0.9,0.825,0.985 l5.831,1.034c0.349,1.203,0.831,2.362,1.438,3.46l-3.441,4.813c-0.284,0.397-0.239,0.942,0.106,1.289l3.888,3.891 c0.343,0.343,0.884,0.391,1.281,0.112l4.87-3.411c1.093,0.601,2.248,1.078,3.445,1.424l0.976,5.861C21.3,47.647,21.717,48,22.206,48 h5.5c0.485,0,0.9-0.348,0.984-0.825l1.045-5.89c1.199-0.353,2.348-0.833,3.43-1.435l4.905,3.441 c0.398,0.281,0.938,0.232,1.282-0.111l3.888-3.891c0.346-0.347,0.391-0.894,0.104-1.292l-3.498-4.857 c0.593-1.08,1.064-2.222,1.407-3.408l5.918-1.039c0.479-0.084,0.827-0.5,0.827-0.985v-5.5C47.999,21.718,47.644,21.3,47.16,21.221z M25,32c-3.866,0-7-3.134-7-7c0-3.866,3.134-7,7-7s7,3.134,7,7C32,28.866,28.866,32,25,32z"/>
</symbol>


<symbol id="music" viewBox="0 0 26 22">
<path d="M9.96381 10.4888C9.86426 10.4707 9.76471 10.4616 9.66516 10.4616H5.52037C2.47964 10.4616 0 12.9322 0 15.982V16.4797C0 19.5204 2.47964 22.0001 5.52037 22.0001H6.2534C8.29865 22.0001 10.0996 20.8779 11.0407 19.2037C11.5113 18.3983 11.7738 17.4752 11.7738 16.4797V12.5612C11.7738 11.5023 10.9774 10.6245 9.96381 10.4888ZM9.96381 16.4797C9.96381 18.525 8.29865 20.1901 6.2534 20.1901H5.52037C3.47512 20.1901 1.80995 18.525 1.80995 16.4797V15.982C1.80995 13.9367 3.47512 12.2716 5.52037 12.2716H9.66516C9.82806 12.2716 9.96381 12.3983 9.96381 12.5612V16.4797Z" />
<path d="M20.9053 0.0361991H20.308V0H15.5931C12.489 0 9.96411 2.52489 9.96411 5.62896V15.9004C9.96411 17.1403 10.3623 18.2805 11.041 19.2036C11.5116 18.3982 11.7741 17.4751 11.7741 16.4796V5.62896C11.7741 3.52036 13.4845 1.80995 15.5931 1.80995H19.8555V1.819H20.9053C22.6519 1.819 24.0727 3.23982 24.0727 4.98642V9.14027C24.0275 9.13122 23.9732 9.13122 23.9279 9.13122H20.3714C17.765 9.13122 15.6293 11.2489 15.6293 13.8643V14.2896C15.6293 16.8959 17.765 19.0317 20.3714 19.0317H20.9958C22.7514 19.0317 24.2989 18.0633 25.1044 16.6244C25.3759 16.1629 25.575 15.6561 25.6655 15.1041C25.7831 14.6787 25.8465 14.2443 25.8465 13.7919V4.98642C25.8465 2.25339 23.6293 0.0361991 20.9053 0.0361991ZM24.1813 14.2896C24.1813 14.5158 24.1541 14.733 24.1179 14.9502C23.8103 16.3891 22.5252 17.4751 20.9958 17.4751H20.3714C18.6157 17.4751 17.1858 16.0452 17.1858 14.2896V13.8643C17.1858 12.1086 18.6157 10.6787 20.3714 10.6787H23.9279C23.9822 10.6787 24.0275 10.6968 24.0727 10.724C24.1361 10.7692 24.1813 10.8416 24.1813 10.9321V14.2896Z" />
</symbol>

<symbol id="close" viewBox="0 0 10 16">
    <path d="M8.84041 14.8263C9.23064 14.4361 9.23098 13.8035 8.84118 13.4129L4.14488 8.70634C3.75538 8.31599 3.75538 7.68401 4.14488 7.29366L8.84118 2.58711C9.23098 2.19646 9.23064 1.56389 8.84041 1.17366L8.37385 0.707107C7.98333 0.316582 7.35017 0.316582 6.95964 0.707107L0.373854 7.29289C-0.0166701 7.68342 -0.0166695 8.31658 0.373855 8.70711L6.95964 15.2929C7.35017 15.6834 7.98333 15.6834 8.37385 15.2929L8.84041 14.8263Z"/>
</symbol>

</svg>